<svg xmlns="http://www.w3.org/2000/svg" width="670" height="602" viewBox="0 0 670 602"><g fill="none" fill-rule="evenodd"><g fill="#DDFEEF"><path d="M181.6 322.2c12.6-18 49.6-45.5 49.6-45.5L204 247.4l16-44s4.4 74.2 25 109c-.3-38.8 33-247.7 33-247.7h163L410.2 335s52.2-40.5 64.3-91c12-50.7 2.8 44.2 2.8 44.2l-31.8 10 176.7-2.3-47.5 24.6s-40 12.3-58.8 21.2c-19 9-55 33.2-55 33.2l-19.5-12.7-34.2 61.8-13.3-22-40.2 74.6-57-101.6-42 49-33.6 15-2.2-77.6-31.8 45.4 12.4-84.8"/><path stroke="#000" stroke-width="5" d="M469.8 98.6s2-27 24.5-47.8c19-17.5 53.4-13 66.7 5 15 20 5.3 54-18 59.6-23.3 5.6-17.3-15.7-6.3-24.4 11-8.6 19.3-23.6 4.3-26-15-2.3-36.7 6.7-37.3 60-.7 53.4 12 104.8-27 163.8M203 247.8s-12.6-63 0-106.8c12.3-43.6 32.8-59.6 17.4-87.6-15.4-28-41.4-7.4-43 3.6-1.7 11 1 22.4 12.6 19.7 11.7-2.7 22 .3 17.7 11.7-4.4 11.3-24.7 23.3-44 11.3-19.4-12-19.3-47.2-10-64 9.2-16.7 34.5-35.2 80-26 45.5 9.3 45.8 46.2 38 59.3M459.5 373.4s12.5-5 35.2-19.4c22.6-14.3 53-27 80.2-35"/><path stroke="#000" stroke-width="5" d="M443.2 301.4s26.2-12.6 73.5-23.6c47.2-11 117-25.5 124.2-54.5 7.2-29-7.8-51.3-21.8-48.5-14 2.7-19.3 10.2-21.5 16.2-2.3 6-10.5 7.3-17.8.8-7.3-6.5-2.6-21.5 14-28 16.4-6.5 44.2-12.8 63 14.5 0 0 14 19.2 8 55-6 35.7-46 65.2-46 65.2M232.3 278s-30-36-62-55-68.6-52-68-91c.4-39 25-27.5 28.6-21.6 3.4 6 7.6 22.3 15.4 22.8 8 .5 8.8-19.8.7-31.4-8-11.6-32.3-22.5-52.6-8.8-21 14.3-33.4 68.4-4.4 113.7 29 45.4 32.2 40.8 55.7 61.8s35.5 39.5 35 56.5"/><path stroke="#000" stroke-width="5" d="M439.7 360s24 13.7 37.3 29.4c13.3 15.6 29 22.3 46.3 20.3 17.4-2 33.7-13.7 36.7-44 1.8-17.6 8.3-55.2 40-66.7 16.7-6 27.3-.3 36.3 11.7 0 0 10 14.3 9.4 32-.8 17.8-19.5 27.3-24.8 21.6-5.3-5.8-1.3-17.8 1.4-25.8 2.8-8 2.5-23.2-12.5-21.7s-28 24.2-25.6 47.5c2.5 23.2 9.7 76-41.7 97-51.4 21-110-4.6-136-37.3M201 322.5s-22.7-1-59 17.5c-36.3 18.7-56.4 9-66.3 2-15.4-10.6-10.7-35.3-6-62.3 4.6-27 3-62.3-21-71 0 0-28-6.7-39 8.3s-4.2 35.8-2 40.4c2.5 5 10.8 11 18.5 7.6 3-2.2 3-4.2-2-17.2-4.6-13 8.5-15.8 8.5-15.8s16.7-3.2 18.5 11.8c1.7 15-10 40.2-10 40.2s-23 47.7 0 86.4c23 38.6 82 48.4 146 36.7M408.2 335.5s30.2-22 52-58c24.5-40.5 37-128.5 11-176.5-7.5-13.8-19.8-26.2-32.4-34.8M278.8 63.8c-8.6 5.6-13.6 11.7-13.6 11.7s-86 84-20 238M352.7 478.8s16.5 26.7 15.7 46c-.7 19.2-17 23.2-26.2 22.7-9.3-.5-21-11-13.8-32 7.3-21 23.5-23.5 26.5-53s-17.6-34-33.3-30.7c-15.8 3.2-28 16.2-20.5 25.7s13.7-1.5 17.2-4 11.5-3.2 10 10.8-10 26-18.2 36.7c0 0-20 22.8-14.3 52 6 35.8 32.2 49.5 69.2 45s72-55 60.5-112.5-32.5-87-32.5-87"/><path stroke="#000" stroke-width="5" d="M220.4 358.4s-43 57.3-65 107.3-2.7 100.3 20.3 114.8 66.5 3.5 82-18 11-51.5 7.5-60.5-13-34.6-17.7-41c-4.8-6.3.3-13.5 6.5-7.3s13.8 9 17.8 5c4-4.3 4.4-18.5-5.3-28.4-9.7-10-31.7-10.4-40.2 0-8.5 10.4-6.6 29-.3 51.3 6.3 22.3 13 72-19.3 66.4-28.4-5-18.4-40.3-9.7-54.3s25.2-28 25.2-28"/></g><path stroke="#000" stroke-width="5" d="M328.4 430.3c-21.2-32-29-56.2-29-56.2h-4.5s-20.5 33.4-41.5 49.5"/><g transform="translate(234 188)"><path fill="#000" d="M108.2 127.2s-10 9.8-19 8.2c-9-1.7-12.7-10-12.7-10s-3.4 15 11.5 17.8c12.7 2.3 20.2-16 20.2-16z"/><ellipse cx="31.2" cy="44" fill="#000" transform="rotate(2.487 31.21 44.048)" rx="29.3" ry="42.5"/><ellipse cx="180.7" cy="77" fill="#000" transform="rotate(32.89 180.65 77.036)" rx="29.2" ry="42.5"/><circle cx="42.8" cy="30.2" r="4.8" fill="#FFF"/><circle cx="201.7" cy="67.5" r="4.8" fill="#FFF"/></g><path fill="#F5EEA2" stroke="#000" stroke-width="5" d="M336 47c1.5-6.2 1.3-20.2.8-30s3-12 6.6-11.8c4.4 0 5 7 3.4 14-1.7 6.8.5 24 .5 24 0 1.2 1.5 14.3 10 13.7 8.5-.7 10.4-9.7 10.4-9.7 1.5-6.2 1.3-20.2.8-30-.5-10 3-12 6.6-12 4.5.3 5.2 7.3 3.5 14-1.7 7 .5 24.2.5 24.2s1.6 14 10.3 13.7c5.4-.3 8.2-3.7 9.7-9.8 1.5-6.2 1.3-20.2.8-30s3-12 6.6-11.8c4.4 0 5 7 3.4 14-1.6 6.8.5 24 .5 24s.7 8.7 8 12c7.2 3.3 15-12.5 15.4-22 .5-9.5-2.7-17.5-4.2-19.5s-2-9 2.2-10.6c4-1.5 11.6 3.2 11.5 25-2.8 43.2-11 52.2-11 52.2-10.3 7-45.3 20-79.2 17.7-34-2.2-55.8-9-63.8-16.2-8-7.2-12.4-30.2-12.4-30.2-1.2-8.7-1-21.8-1-21.8C275.5 8.3 283 3.6 287 5c4.2 1.6 3.7 8.8 2.2 10.8s-4.7 10-4.2 19.5 8.2 25.3 15.4 22c7.3-2 7-9.7 7-9.7 1.4-6.2 1.2-20.2.7-30-.5-10 3-12 6.6-12 4.3.2 5 7.3 3.3 14-1.7 7 .5 24.2.5 24.2s1 11 8 12.6C334 58 336 47 336 47z"/></g></svg>